<svg width="37" height="40" viewBox="0 0 37 40" fill="none" xmlns="http://www.w3.org/2000/svg">
<path d="M31.5864 2.34375C30.7067 2.34375 29.8821 2.57414 29.1708 2.97437V1.17188C29.1708 0.524687 28.6301 0 27.963 0H8.63818C7.97107 0 7.4303 0.524687 7.4303 1.17188V2.98867C6.71343 2.57953 5.87932 2.34375 4.98917 2.34375C2.32524 2.34375 0.157959 4.44656 0.157959 7.03125C0.157959 9.00273 0.760089 10.9077 1.89921 12.5402C3.83846 15.3193 6.22982 16.0405 8.20861 16.8084C9.34958 19.5653 11.6569 21.7502 14.5351 22.7846L13.6444 28.2812H13.4694C11.4714 28.2812 9.84598 29.8584 9.84598 31.7969V37.6562H8.63818C7.97115 37.6562 7.43038 38.1809 7.43038 38.8281C7.43038 39.4753 7.97115 40 8.63818 40H27.963C28.6301 40 29.1708 39.4753 29.1708 38.8281C29.1708 38.1809 28.6301 37.6562 27.963 37.6562H26.7552V31.7969C26.7552 29.8584 25.1298 28.2812 23.1318 28.2812H22.9568L22.0662 22.7847C24.9486 21.7487 27.2585 19.5591 28.3978 16.7966C30.267 16.0711 32.7173 15.3478 34.6765 12.5402C35.8156 10.9077 36.4177 9.00266 36.4177 7.03125C36.4176 4.44656 34.2504 2.34375 31.5864 2.34375ZM7.42136 13.9787C4.47642 12.8357 2.57356 10.1087 2.57356 7.03125C2.57356 5.73891 3.65721 4.6875 4.98917 4.6875C6.32113 4.6875 7.40477 5.73891 7.40477 7.03125C7.40477 7.11367 7.41371 7.19398 7.43038 7.27156V12.8906C7.43038 13.2673 7.45123 13.6392 7.49117 14.0058L7.42136 13.9787ZM24.3396 37.6562H12.2616V35.3125H24.3396V37.6562ZM23.1318 30.625C23.7978 30.625 24.3396 31.1507 24.3396 31.7969V32.9688H12.2616V31.7969C12.2616 31.1507 12.8034 30.625 13.4694 30.625C14.1247 30.625 21.5951 30.625 23.1318 30.625ZM16.0897 28.2812L16.8889 23.3487C17.3511 23.4071 17.8222 23.4375 18.3006 23.4375C18.779 23.4375 19.2501 23.407 19.7123 23.3487L20.5115 28.2812H16.0897ZM26.7552 12.8906C26.7552 17.4138 22.9625 21.0938 18.3006 21.0938C13.6387 21.0938 9.84598 17.4138 9.84598 12.8906V7.03125H26.7552V12.8906ZM26.7552 4.6875H9.84598V2.34375H26.7552V4.6875ZM29.1542 13.9787L29.1112 13.9953C29.1504 13.6322 29.1707 13.2637 29.1707 12.8906V7.03125C29.1708 5.73891 30.2545 4.6875 31.5864 4.6875C32.9184 4.6875 34.002 5.73891 34.002 7.03125C34.002 10.1087 32.0992 12.8358 29.1542 13.9787Z" fill="black"/>
</svg>
