<svg width="41" height="40" viewBox="0 0 41 40" fill="none" xmlns="http://www.w3.org/2000/svg">
<path d="M38.0401 14.1742C37.5107 12.5398 37.7364 10.0864 36.3603 8.19214C34.9735 6.28292 32.5613 5.74026 31.1993 4.74714C29.8516 3.76448 28.5978 1.62612 26.3308 0.88862C24.1278 0.171901 21.875 1.14448 20.1282 1.14448C18.3817 1.14448 16.1291 0.171667 13.9257 0.888542C11.6591 1.62589 10.4042 3.76471 9.05741 4.7469C7.69686 5.73885 5.28295 6.283 3.8963 8.1919C2.52141 10.0846 2.74483 12.5436 2.21634 14.1741C1.7134 15.7259 0.0671387 17.5883 0.0671387 20.0002C0.0671387 22.4135 1.71152 24.2688 2.21634 25.8262C2.74577 27.4606 2.52008 29.9139 3.89614 31.8082C5.28295 33.7175 7.69498 34.2601 9.05718 35.2533C10.4046 36.2358 11.6587 38.3743 13.9257 39.1117C16.1272 39.828 18.3836 38.8559 20.1282 38.8559C21.8705 38.8559 24.1321 39.827 26.3308 39.1118C28.5975 38.3745 29.8515 36.2361 31.1991 35.2535C32.5596 34.2615 34.9735 33.7174 36.3602 31.8085C37.7351 29.9157 37.5116 27.4569 38.0401 25.8263C38.5431 24.2744 40.1893 22.412 40.1893 20.0002C40.1893 17.587 38.5453 15.7323 38.0401 14.1742ZM35.0575 24.8653C34.4404 26.7696 34.6021 28.9008 33.8216 29.9753C33.0306 31.0642 30.9525 31.5615 29.3489 32.7309C27.7629 33.8872 26.6513 35.7203 25.3585 36.1408C24.1354 36.5388 22.1421 35.7307 20.1283 35.7307C18.0998 35.7307 16.1271 36.5405 14.8981 36.1408C13.6054 35.7203 12.4954 33.8885 10.9077 32.7308C9.31358 31.5685 7.22362 31.061 6.43489 29.9752C5.6569 28.9042 5.81245 26.7583 5.1991 24.8654C4.59789 23.0108 3.20169 21.4049 3.20169 20.0002C3.20169 18.594 4.59664 16.9937 5.19894 15.135C5.81605 13.2308 5.65439 11.0995 6.43489 10.025C7.22543 8.9369 9.30512 8.43792 10.9077 7.26948C12.4987 6.1094 13.6033 4.28073 14.8979 3.85956C16.12 3.46206 18.1198 4.26964 20.1282 4.26964C22.1604 4.26964 24.1282 3.45932 25.3584 3.85956C26.6509 4.28003 27.7619 6.11253 29.3489 7.26956C30.9427 8.43182 33.0329 8.9394 33.8216 10.0251C34.5997 11.0963 34.4433 13.24 35.0574 15.1349C35.6586 16.9895 37.0548 18.5954 37.0548 20.0002C37.0548 21.4064 35.6598 23.0067 35.0575 24.8653ZM27.3489 14.9849C27.961 15.5952 27.961 16.5845 27.3489 17.1946L19.5042 25.0154C18.8921 25.6257 17.8997 25.6256 17.2877 25.0154L12.9077 20.6487C12.2956 20.0385 12.2955 19.0492 12.9076 18.439C13.5197 17.8289 14.5122 17.8288 15.124 18.439L18.3959 21.7009L25.1323 14.985C25.7444 14.3748 26.7368 14.3748 27.3489 14.9849Z" fill="black"/>
</svg>
