<svg width="32" height="32" viewBox="0 0 32 32" fill="none" xmlns="http://www.w3.org/2000/svg">
<path d="M2.14893 3.51221H4.68515C5.16404 3.51221 5.40348 3.51221 5.59806 3.59908C5.7696 3.67567 5.91609 3.79902 6.02076 3.95502C6.1395 4.13197 6.18027 4.36791 6.2618 4.8398L6.82038 8.07281M6.82038 8.07281L8.1155 15.5688C8.29382 16.6009 8.38298 17.117 8.64841 17.4887C8.88212 17.816 9.20907 18.0652 9.58658 18.2038C10.0153 18.3613 10.5366 18.3105 11.579 18.2089L25.7964 16.824C26.8171 16.7246 27.3274 16.6749 27.7131 16.4441C28.0528 16.2408 28.3245 15.9414 28.4938 15.5836C28.6861 15.1773 28.6861 14.6646 28.6861 13.6391V11.8304C28.6861 10.7401 28.6861 10.1949 28.4762 9.7736C28.2915 9.40287 27.9962 9.09864 27.6311 8.90293C27.2162 8.68053 26.6713 8.66429 25.5814 8.63182L6.82038 8.07281Z" stroke="white" stroke-width="3" stroke-linecap="round" stroke-linejoin="round"/>
<ellipse cx="11.8576" cy="25.0118" rx="2.589" ry="2.60606" stroke="white" stroke-width="3"/>
<ellipse cx="24.1554" cy="25.0118" rx="2.589" ry="2.60606" stroke="white" stroke-width="3"/>
</svg>
