<svg width="21" height="23" viewBox="0 0 21 23" fill="none" xmlns="http://www.w3.org/2000/svg">
<path d="M19.9579 5.14583C16.4576 4.80208 12.9362 4.625 9.42534 4.625C7.34405 4.625 5.26276 4.72917 3.18147 4.9375L1.03711 5.14583M6.81847 4.09375L7.04972 2.72917C7.21791 1.73958 7.34405 1 9.1205 1H11.8745C13.651 1 13.7876 1.78125 13.9453 2.73958L14.1766 4.09375M17.6979 8.4375L17.0147 18.9271C16.8991 20.5625 16.8045 21.8333 13.8717 21.8333H7.1233C4.19058 21.8333 4.09597 20.5625 3.98035 18.9271L3.2971 8.4375M8.74208 16.1042H12.2424M7.86962 11.9375H13.1254" stroke="#006195" stroke-width="1.5" stroke-linecap="round" stroke-linejoin="round"/>
</svg>
