<svg width="22" height="20" viewBox="0 0 22 20" fill="none" xmlns="http://www.w3.org/2000/svg">
<path d="M3.71019 1.29067C3.61695 1.19744 3.50626 1.12347 3.38443 1.07301C3.26261 1.02255 3.13204 0.996582 3.00019 0.996582C2.86833 0.996582 2.73776 1.02255 2.61594 1.07301C2.49411 1.12347 2.38342 1.19744 2.29019 1.29067C2.10188 1.47898 1.99609 1.73437 1.99609 2.00067C1.99609 2.26698 2.10188 2.52237 2.29019 2.71067L7.92019 8.34067C7.56399 9.00329 7.43077 9.76305 7.54027 10.5073C7.64978 11.2516 7.99617 11.9408 8.52812 12.4727C9.06007 13.0047 9.74926 13.3511 10.4935 13.4606C11.2378 13.5701 11.9976 13.4369 12.6602 13.0807L18.2902 18.7107C18.3831 18.8044 18.4937 18.8788 18.6156 18.9296C18.7375 18.9803 18.8682 19.0065 19.0002 19.0065C19.1322 19.0065 19.2629 18.9803 19.3848 18.9296C19.5066 18.8788 19.6172 18.8044 19.7102 18.7107C19.8039 18.6177 19.8783 18.5071 19.9291 18.3853C19.9798 18.2634 20.006 18.1327 20.006 18.0007C20.006 17.8687 19.9798 17.738 19.9291 17.6161C19.8783 17.4942 19.8039 17.3836 19.7102 17.2907L3.71019 1.29067ZM11.0002 11.5007C10.6024 11.5007 10.2208 11.3426 9.93953 11.0613C9.65822 10.78 9.50019 10.3985 9.50019 10.0007C9.50019 10.0007 9.50019 9.95067 9.50019 9.93067L11.0602 11.4907L11.0002 11.5007Z" fill="#006195"/>
<path d="M11.2201 15.0001C6.92007 15.1001 4.10007 11.4101 3.22007 10.0001C3.84654 9.00081 4.59943 8.08658 5.46007 7.28012L4.00007 5.87012C2.87139 6.93359 1.90448 8.15655 1.13007 9.50012C1.0423 9.65214 0.996094 9.82458 0.996094 10.0001C0.996094 10.1757 1.0423 10.3481 1.13007 10.5001C1.76007 11.5901 5.13007 17.0001 11.0201 17.0001H11.2701C12.3776 16.9673 13.4708 16.7405 14.5001 16.3301L12.9201 14.7501C12.3644 14.8963 11.7943 14.9801 11.2201 15.0001Z" fill="#006195"/>
<path d="M20.87 9.50036C20.23 8.39036 16.7 2.82036 10.73 3.00036C9.62245 3.03321 8.52924 3.25998 7.5 3.67036L9.08 5.25036C9.63563 5.10419 10.2058 5.02034 10.78 5.00036C15.07 4.89036 17.89 8.59036 18.78 10.0004C18.1381 11.0027 17.3682 11.917 16.49 12.7204L18 14.1304C19.1428 13.0697 20.1234 11.8466 20.91 10.5004C20.9918 10.3449 21.0311 10.1705 21.0241 9.995C21.0171 9.81944 20.9639 9.64884 20.87 9.50036Z" fill="#006195"/>
</svg>
