<svg width="18" height="18" viewBox="0 0 18 18" fill="none" xmlns="http://www.w3.org/2000/svg">
<path d="M17.7363 16.4538C17.9052 16.6249 18 16.856 18 17.0969C18 17.3377 17.9052 17.5688 17.7363 17.7399C17.5644 17.9068 17.3346 18 17.0954 18C16.8563 18 16.6265 17.9068 16.4546 17.7399L9 10.2486L1.54544 17.7399C1.37351 17.9068 1.14371 18 0.904554 18C0.665395 18 0.435594 17.9068 0.263664 17.7399C0.0947559 17.5688 0 17.3377 0 17.0969C0 16.856 0.0947559 16.6249 0.263664 16.4538L7.72946 8.97369L0.263664 1.49362C0.120228 1.31825 0.0469268 1.09562 0.0580177 0.869027C0.0691085 0.642434 0.163799 0.428081 0.32367 0.267663C0.483541 0.107244 0.697163 0.0122298 0.922983 0.001101C1.1488 -0.0100278 1.37068 0.0635246 1.54544 0.207452L9 7.69881L16.4546 0.207452C16.6293 0.0635246 16.8512 -0.0100278 17.077 0.001101C17.3028 0.0122298 17.5165 0.107244 17.6763 0.267663C17.8362 0.428081 17.9309 0.642434 17.942 0.869027C17.9531 1.09562 17.8798 1.31825 17.7363 1.49362L10.2705 8.97369L17.7363 16.4538Z" fill="#908E8E"/>
</svg>
