<svg width="23" height="23" viewBox="0 0 23 23" fill="none" xmlns="http://www.w3.org/2000/svg">
<path d="M21.5003 9.62467H11.7087V13.4788H17.4378C17.3337 14.4163 16.7087 15.8747 15.3545 16.8122C14.5212 17.4372 13.2712 17.8538 11.7087 17.8538C9.00033 17.8538 6.60449 16.083 5.77116 13.4788C5.56283 12.8538 5.45866 12.1247 5.45866 11.3955C5.45866 10.6663 5.56283 9.93717 5.77116 9.31217C5.87533 9.10384 5.87533 8.89551 5.97949 8.79134C6.91699 6.60384 9.10449 5.04134 11.7087 5.04134C13.6878 5.04134 14.9378 5.87467 15.7712 6.60384L18.6878 3.68717C16.917 2.12467 14.5212 1.08301 11.7087 1.08301C7.64616 1.08301 4.10449 3.37467 2.43783 6.81217C1.70866 8.27051 1.29199 9.83301 1.29199 11.4997C1.29199 13.1663 1.70866 14.7288 2.43783 16.1872C4.10449 19.6247 7.64616 21.9163 11.7087 21.9163C14.5212 21.9163 16.917 20.9788 18.5837 19.4163C20.5628 17.6455 21.7087 14.9372 21.7087 11.708C21.7087 10.8747 21.6045 10.2497 21.5003 9.62467V9.62467Z" stroke="#7C7C7C" stroke-width="1.5" stroke-miterlimit="10" stroke-linecap="round" stroke-linejoin="round"/>
</svg>
