<svg width="24" height="24" viewBox="0 0 24 24" fill="none" xmlns="http://www.w3.org/2000/svg">
<path d="M19.97 10.0003H3.97V18.0003C3.97 21.0003 4.97 22.0003 7.97 22.0003H15.97C18.97 22.0003 19.97 21.0003 19.97 18.0003V10.0003ZM21.5 7.00031V8.00031C21.5 9.10031 20.97 10.0003 19.5 10.0003H4.5C2.97 10.0003 2.5 9.10031 2.5 8.00031V7.00031C2.5 5.90031 2.97 5.00031 4.5 5.00031H19.5C20.97 5.00031 21.5 5.90031 21.5 7.00031ZM11.64 5.00031H6.12C5.95557 4.82197 5.8668 4.58675 5.8724 4.34425C5.87799 4.10174 5.97752 3.87087 6.15 3.70031L7.57 2.28031C7.74972 2.1026 7.99226 2.00293 8.245 2.00293C8.49774 2.00293 8.74028 2.1026 8.92 2.28031L11.64 5.00031ZM17.87 5.00031H12.35L15.07 2.28031C15.2497 2.1026 15.4923 2.00293 15.745 2.00293C15.9977 2.00293 16.2403 2.1026 16.42 2.28031L17.84 3.70031C18.2 4.06031 18.21 4.63031 17.87 5.00031Z" stroke="#006195" stroke-width="1.5" stroke-miterlimit="10" stroke-linecap="round" stroke-linejoin="round"/>
<path d="M8.94043 10V15.14C8.94043 15.94 9.82043 16.41 10.4904 15.98L11.4304 15.36C11.5937 15.2525 11.7849 15.1952 11.9804 15.1952C12.1759 15.1952 12.3672 15.2525 12.5304 15.36L13.4204 15.96C13.5706 16.0601 13.7451 16.1176 13.9254 16.1263C14.1057 16.135 14.285 16.0945 14.4441 16.0093C14.6032 15.9241 14.7362 15.7973 14.8289 15.6425C14.9216 15.4876 14.9705 15.3105 14.9704 15.13V10H8.94043Z" stroke="#006195" stroke-width="1.5" stroke-miterlimit="10" stroke-linecap="round" stroke-linejoin="round"/>
</svg>
