<svg width="30" height="30" viewBox="0 0 30 30" fill="none" xmlns="http://www.w3.org/2000/svg">
<path d="M1.28638 3.125H3.68556C4.16404 3.125 4.40328 3.125 4.59776 3.21177C4.76921 3.28826 4.91566 3.41146 5.02036 3.56729C5.13913 3.74405 5.18007 3.97977 5.26195 4.45119L5.79151 7.5M5.79151 7.5L7.02061 14.5763C7.19962 15.607 7.28913 16.1223 7.55448 16.4935C7.78812 16.8204 8.11479 17.0693 8.49193 17.2078C8.92025 17.3651 9.44084 17.3147 10.482 17.2138L23.9874 15.9052C25.0086 15.8062 25.5192 15.7567 25.9051 15.526C26.245 15.3228 26.5169 15.0233 26.6863 14.6654C26.8788 14.259 26.8788 13.7461 26.8788 12.7201V11.2316C26.8788 10.1411 26.8788 9.59583 26.6688 9.1745C26.484 8.80373 26.1886 8.49949 25.8235 8.3038C25.4086 8.08143 24.8636 8.06527 23.7736 8.03297L5.79151 7.5Z" stroke="#002F2C" stroke-width="1.5" stroke-linecap="round" stroke-linejoin="round"/>
<ellipse cx="10.6497" cy="23.75" rx="2.49682" ry="2.5" stroke="#002F2C" stroke-width="1.5"/>
<ellipse cx="22.5095" cy="23.75" rx="2.49682" ry="2.5" stroke="#002F2C" stroke-width="1.5"/>
</svg>
