<svg width="30" height="30" viewBox="0 0 30 30" fill="none" xmlns="http://www.w3.org/2000/svg">
<path d="M17.5 11.625V15.25H20.75C21 15.25 21.125 15.5 21.125 15.75L20.625 18.125C20.625 18.25 20.375 18.375 20.25 18.375H17.5V27.5H13.75V18.5H11.625C11.375 18.5 11.25 18.375 11.25 18.125V15.75C11.25 15.5 11.375 15.375 11.625 15.375H13.75V11.25C13.75 9.125 15.375 7.5 17.5 7.5H20.875C21.125 7.5 21.25 7.625 21.25 7.875V10.875C21.25 11.125 21.125 11.25 20.875 11.25H17.875C17.625 11.25 17.5 11.375 17.5 11.625Z" stroke="black" stroke-width="1.5" stroke-miterlimit="10" stroke-linecap="round"/>
<path d="M18.75 27.5H11.25C5 27.5 2.5 25 2.5 18.75V11.25C2.5 5 5 2.5 11.25 2.5H18.75C25 2.5 27.5 5 27.5 11.25V18.75C27.5 25 25 27.5 18.75 27.5Z" stroke="black" stroke-width="1.5" stroke-linecap="round" stroke-linejoin="round"/>
</svg>
