<svg width="30" height="30" viewBox="0 0 30 30" fill="none" xmlns="http://www.w3.org/2000/svg">
<g clip-path="url(#clip0_1873_2518)">
<path d="M11.75 28.5H19.25C25.5 28.5 28 26 28 19.75V12.25C28 6 25.5 3.5 19.25 3.5H11.75C5.5 3.5 3 6 3 12.25V19.75C3 26 5.5 28.5 11.75 28.5Z" stroke="black" stroke-width="1.5" stroke-linecap="round" stroke-linejoin="round"/>
<path d="M15.5 20.375C16.0745 20.375 16.6434 20.2618 17.1742 20.042C17.705 19.8221 18.1873 19.4998 18.5936 19.0936C18.9998 18.6873 19.3221 18.205 19.542 17.6742C19.7618 17.1434 19.875 16.5745 19.875 16C19.875 15.4255 19.7618 14.8566 19.542 14.3258C19.3221 13.795 18.9998 13.3127 18.5936 12.9064C18.1873 12.5002 17.705 12.1779 17.1742 11.958C16.6434 11.7382 16.0745 11.625 15.5 11.625C14.3397 11.625 13.2269 12.0859 12.4064 12.9064C11.5859 13.7269 11.125 14.8397 11.125 16C11.125 17.1603 11.5859 18.2731 12.4064 19.0936C13.2269 19.9141 14.3397 20.375 15.5 20.375Z" stroke="black" stroke-width="1.5" stroke-linecap="round" stroke-linejoin="round"/>
<path d="M22.5449 9.75H22.5599" stroke="black" stroke-width="2" stroke-linecap="round" stroke-linejoin="round"/>
</g>
<defs>
<clipPath id="clip0_1873_2518">
<rect width="27" height="28" fill="white" transform="translate(2 2)"/>
</clipPath>
</defs>
</svg>
