<svg width="80" height="34" viewBox="0 0 80 34" fill="none" xmlns="http://www.w3.org/2000/svg">
<rect width="80" height="34" fill="white"/>
<path fill-rule="evenodd" clip-rule="evenodd" d="M20.9873 2.31748C20.593 2.50133 19.4675 3.37794 18.2847 4.42216C16.0618 6.38472 15.0838 7.00218 10.6293 9.25479C7.90264 10.6337 7.1966 10.9076 4.63672 11.5798C2.33981 12.1828 1.66403 12.4984 0.935147 13.3076C-0.45938 14.8563 -0.27074 17.3411 1.34405 18.6921C1.83348 19.1015 3.74136 19.9624 4.15945 19.9624C4.23606 19.9624 4.2989 20.009 4.2989 20.066C4.2989 20.1229 3.55407 20.2408 2.64358 20.328C-0.952192 20.6721 -0.862602 21.1528 2.86897 21.5369C6.40407 21.9009 9.74769 22 18.4874 22C27.2271 22 30.5707 21.9009 34.1058 21.5369C36.7445 21.2654 37.6319 20.9142 36.4284 20.6181L35.8371 20.4725L36.2781 20.0154C37.2849 18.9721 37.2057 17.2445 36.1049 16.2396C35.3401 15.5413 35.351 15.5424 28.6272 15.4717L22.3487 15.4057L22.149 15.0577C21.9698 14.7456 21.9732 14.6741 22.1809 14.3643L22.4123 14.0189H28.8527C35.0796 14.0189 35.3122 14.0099 35.8682 13.7468C36.2857 13.5492 36.5195 13.3207 36.7216 12.9126C36.8747 12.6035 37 12.2802 37 12.1941C37 12.0755 35.2275 12.038 29.6693 12.039L22.3386 12.0403L21.6378 12.3592C20.59 12.836 20.1765 13.5146 20.1765 14.7573C20.1765 15.6066 20.2216 15.7757 20.5819 16.2741C20.8048 16.5827 21.2305 16.9592 21.5278 17.111C22.0476 17.3763 22.3107 17.3894 28.3906 17.4529C35.279 17.5249 34.9664 17.4858 34.971 18.2754C34.9756 19.0912 35.6107 19.0569 21.5747 18.9985C7.91683 18.9418 7.98453 18.9449 5.21521 18.2451C2.85587 17.6489 2.00172 17.0098 2.00172 15.8404C2.00172 15.031 2.36129 14.3968 2.98356 14.1091C3.22395 13.9979 4.32282 13.6645 5.42547 13.3683C8.08101 12.655 9.00556 12.282 12.1593 10.6517C16.2807 8.52122 17.2791 7.89503 19.0833 6.30916C21.6389 4.0629 21.786 3.95684 22.2815 4.00492C22.681 4.04362 22.7288 4.10081 22.895 4.73835C23.1724 5.80304 23.6781 6.66195 24.5852 7.60975C27.021 10.1549 31.1281 10.4401 33.858 8.25363C34.1822 7.9941 34.4635 7.80311 34.4831 7.82939C34.5028 7.85568 34.5935 8.1308 34.6846 8.44079C34.905 9.19073 35.5491 9.88467 36.2026 10.0761C36.4935 10.1612 36.7689 10.1944 36.8146 10.1496C36.9422 10.0249 36.6172 7.99317 36.2969 6.91369C35.9478 5.7366 35.5094 5.30167 34.6721 5.30167C34.1831 5.30167 34.0423 5.38171 33.4123 6.0174C32.0605 7.38165 30.7867 7.90507 29.1458 7.77062C26.8463 7.58214 25.0853 5.94674 24.6539 3.59877L24.4936 2.72613L23.7635 2.36291C22.8218 1.89443 21.9255 1.87977 20.9873 2.31748Z" fill="#006195"/>
<path d="M40.64 21V16.296H45.776V17.384H42.2V18.048H44.848V19.16H42.2V19.904H45.648L46.128 20.912C46.128 20.9333 46.056 20.9547 45.912 20.976C45.768 20.992 45.52 21 45.168 21H40.64ZM49.3291 21L49.4091 20.36V16.296H50.9451V19.904H53.7771L54.2571 20.912C54.2571 20.9333 54.1851 20.9547 54.0411 20.976C53.8971 20.992 53.6491 21 53.2971 21H49.3291ZM57.2994 21V16.296H62.4354V17.384H58.8594V18.048H61.5074V19.16H58.8594V19.904H62.3074L62.7874 20.912C62.7874 20.9333 62.7154 20.9547 62.5714 20.976C62.4274 20.992 62.1794 21 61.8274 21H57.2994ZM67.5324 21C66.9618 21 66.5484 20.8747 66.2924 20.624C66.0364 20.3733 65.9084 19.968 65.9084 19.408V17.944C65.9084 17.368 66.0498 16.9493 66.3324 16.688C66.6151 16.4213 67.0151 16.288 67.5324 16.288H69.8684C70.2364 16.288 70.5164 16.3093 70.7084 16.352C70.9058 16.3893 71.0044 16.4293 71.0044 16.472L70.7564 17.472C70.6231 17.456 70.3618 17.44 69.9724 17.424C69.5884 17.4027 69.1031 17.392 68.5164 17.392H68.1084C67.8578 17.392 67.6871 17.44 67.5964 17.536C67.5111 17.6267 67.4684 17.768 67.4684 17.96V19.328C67.4684 19.5093 67.5058 19.6507 67.5804 19.752C67.6604 19.848 67.8364 19.896 68.1084 19.896H68.4364C69.1991 19.896 69.7804 19.888 70.1804 19.872C70.5804 19.8507 70.8204 19.8293 70.9004 19.808L71.3884 20.672C71.3884 20.6987 71.3324 20.7387 71.2204 20.792C71.1138 20.8453 70.9298 20.8933 70.6684 20.936C70.4124 20.9787 70.0551 21 69.5964 21H67.5324ZM76.0156 21V17.376H74.1116V16.288H79.4956V17.376H77.5676V21H76.0156Z" fill="#006195"/>
<path d="M17.304 25.32C17.72 25.32 18.08 25.3787 18.384 25.496C18.6933 25.6133 18.9733 25.792 19.224 26.032L18.616 26.744C18.2373 26.4347 17.832 26.28 17.4 26.28C17.1707 26.28 16.9893 26.328 16.856 26.424C16.7227 26.5147 16.656 26.648 16.656 26.824C16.656 26.9467 16.6853 27.048 16.744 27.128C16.8027 27.2027 16.9067 27.2747 17.056 27.344C17.2053 27.4133 17.4293 27.496 17.728 27.592C18.2933 27.7733 18.7093 27.9973 18.976 28.264C19.2427 28.5253 19.376 28.8987 19.376 29.384C19.376 29.7307 19.288 30.0373 19.112 30.304C18.936 30.5653 18.6827 30.7707 18.352 30.92C18.0213 31.064 17.6293 31.136 17.176 31.136C16.7227 31.136 16.32 31.064 15.968 30.92C15.6213 30.776 15.3227 30.584 15.072 30.344L15.736 29.616C15.9493 29.7973 16.168 29.9333 16.392 30.024C16.6213 30.1147 16.8693 30.16 17.136 30.16C17.408 30.16 17.6213 30.1013 17.776 29.984C17.936 29.8613 18.016 29.6933 18.016 29.48C18.016 29.3413 17.9867 29.2267 17.928 29.136C17.8693 29.04 17.768 28.9547 17.624 28.88C17.48 28.8053 17.272 28.7253 17 28.64C16.3867 28.4533 15.9493 28.224 15.688 27.952C15.432 27.68 15.304 27.336 15.304 26.92C15.304 26.6 15.3893 26.32 15.56 26.08C15.7307 25.8347 15.968 25.648 16.272 25.52C16.576 25.3867 16.92 25.32 17.304 25.32ZM26.7701 31H25.0981L23.4981 26.704C23.5515 27.1253 23.5915 27.4987 23.6181 27.824C23.6501 28.144 23.6661 28.5253 23.6661 28.968V31H22.4981V25.456H24.1301L25.7701 29.76C25.6528 29.0293 25.5941 28.3413 25.5941 27.696V25.456H26.7701V31ZM33.6028 25.456L33.4668 26.392H31.5148V27.72H33.2188V28.64H31.5148V30.056H33.6028V31H30.2028V25.456H33.6028ZM39.7338 31L39.4458 29.808H37.8298L37.5498 31H36.1898L37.8618 25.456H39.4538L41.1258 31H39.7338ZM38.0538 28.856H39.2218L38.6378 26.408L38.0538 28.856ZM45.2445 25.456V31H43.9325V25.456H45.2445ZM48.4285 25.456L46.6605 27.944L48.5725 31H47.0525L45.2845 28.04L47.0445 25.456H48.4285ZM54.795 25.456L54.659 26.392H52.707V27.72H54.411V28.64H52.707V30.056H54.795V31H51.395V25.456H54.795ZM59.8299 28.88H59.3179V31H58.0059V25.456H59.8219C60.5793 25.456 61.1473 25.5947 61.5259 25.872C61.9099 26.1493 62.1019 26.5733 62.1019 27.144C62.1019 27.5013 62.0166 27.8 61.8459 28.04C61.6753 28.2747 61.4059 28.4747 61.0379 28.64L62.4459 31H60.9659L59.8299 28.88ZM59.3179 27.976H59.8699C60.1633 27.976 60.3819 27.9093 60.5259 27.776C60.6753 27.6427 60.7499 27.432 60.7499 27.144C60.7499 26.8773 60.6699 26.6827 60.5099 26.56C60.3553 26.4373 60.1153 26.376 59.7899 26.376H59.3179V27.976ZM67.0571 25.32C67.4731 25.32 67.8331 25.3787 68.1371 25.496C68.4465 25.6133 68.7265 25.792 68.9771 26.032L68.3691 26.744C67.9905 26.4347 67.5851 26.28 67.1531 26.28C66.9238 26.28 66.7425 26.328 66.6091 26.424C66.4758 26.5147 66.4091 26.648 66.4091 26.824C66.4091 26.9467 66.4385 27.048 66.4971 27.128C66.5558 27.2027 66.6598 27.2747 66.8091 27.344C66.9585 27.4133 67.1825 27.496 67.4811 27.592C68.0465 27.7733 68.4625 27.9973 68.7291 28.264C68.9958 28.5253 69.1291 28.8987 69.1291 29.384C69.1291 29.7307 69.0411 30.0373 68.8651 30.304C68.6891 30.5653 68.4358 30.7707 68.1051 30.92C67.7745 31.064 67.3825 31.136 66.9291 31.136C66.4758 31.136 66.0731 31.064 65.7211 30.92C65.3745 30.776 65.0758 30.584 64.8251 30.344L65.4891 29.616C65.7025 29.7973 65.9211 29.9333 66.1451 30.024C66.3745 30.1147 66.6225 30.16 66.8891 30.16C67.1611 30.16 67.3745 30.1013 67.5291 29.984C67.6891 29.8613 67.7691 29.6933 67.7691 29.48C67.7691 29.3413 67.7398 29.2267 67.6811 29.136C67.6225 29.04 67.5211 28.9547 67.3771 28.88C67.2331 28.8053 67.0251 28.7253 66.7531 28.64C66.1398 28.4533 65.7025 28.224 65.4411 27.952C65.1851 27.68 65.0571 27.336 65.0571 26.92C65.0571 26.6 65.1425 26.32 65.3131 26.08C65.4838 25.8347 65.7211 25.648 66.0251 25.52C66.3291 25.3867 66.6731 25.32 67.0571 25.32Z" fill="#006195"/>
</svg>
