<svg width="24" height="28" viewBox="0 0 24 28" fill="none" xmlns="http://www.w3.org/2000/svg">
<path d="M22.7048 26.5C22.7048 21.6625 17.8984 17.75 11.9809 17.75C6.06346 17.75 1.25708 21.6625 1.25708 26.5M11.9809 14C13.6364 14 15.2241 13.3415 16.3947 12.1694C17.5653 10.9973 18.223 9.4076 18.223 7.75C18.223 6.0924 17.5653 4.50268 16.3947 3.33058C15.2241 2.15848 13.6364 1.5 11.9809 1.5C10.3254 1.5 8.73774 2.15848 7.56712 3.33058C6.39651 4.50268 5.73887 6.0924 5.73887 7.75C5.73887 9.4076 6.39651 10.9973 7.56712 12.1694C8.73774 13.3415 10.3254 14 11.9809 14Z" stroke="#002F2C" stroke-width="1.5" stroke-linecap="round" stroke-linejoin="round"/>
</svg>
