<svg width="37" height="40" viewBox="0 0 37 40" fill="none" xmlns="http://www.w3.org/2000/svg">
<path d="M34.8814 15.9752C34.6166 7.12165 27.2811 0 18.3011 0C9.32103 0 1.98549 7.12165 1.72062 15.9752L0.527588 17.1598V25.1932L1.71249 26.3696V31.8431C1.71249 35.0435 4.33474 37.6471 7.55798 37.6471H9.02568C9.5148 39.0164 10.8319 40 12.3766 40H14.7464C16.2921 40 17.6099 39.015 18.0982 37.6442C18.1659 37.6454 18.2338 37.6471 18.3011 37.6471C24.0232 37.6471 28.8109 33.5987 29.9118 28.2353H33.0106L36.0745 25.1932V17.1598L34.8814 15.9752ZM18.3011 2.35294C25.3339 2.35294 31.1897 7.44933 32.3212 14.1176H29.9118C28.8109 8.7542 24.0232 4.70588 18.3011 4.70588C12.5789 4.70588 7.79117 8.7542 6.69032 14.1176H4.28087C5.41245 7.44933 11.2682 2.35294 18.3011 2.35294ZM27.4803 14.1176C23.65 14.1063 20.9445 14.3379 18.7139 11.1004L17.6307 9.52839L16.6999 11.1938C15.3436 13.6204 13.517 14.1176 11.1917 14.1176H9.12181C10.1768 10.0629 13.8922 7.05882 18.3011 7.05882C22.7099 7.05882 26.4254 10.0629 27.4803 14.1176ZM6.45208 25.8824H4.57307L2.89738 24.2186V18.1344L4.57307 16.4706H6.45208V25.8824ZM4.08228 31.8431V28.2353H6.68803C7.13411 30.4294 8.20138 32.4435 9.78251 34.0611C9.45105 34.4127 9.19109 34.8311 9.02568 35.2941H7.55798C5.64145 35.2941 4.08228 33.746 4.08228 31.8431ZM14.7464 37.6471H12.3766C11.7231 37.6471 11.1917 37.1194 11.1917 36.4706C11.1917 35.8219 11.7231 35.2941 12.3766 35.2941H14.7464C15.3997 35.2941 15.9313 35.8219 15.9313 36.4706C15.9313 37.1194 15.3997 37.6471 14.7464 37.6471ZM27.7802 25.8824C27.7802 31.072 23.5279 35.2941 18.3011 35.2941C18.2331 35.2941 18.1646 35.2928 18.0962 35.2912C17.6063 33.9234 16.29 32.9412 14.7464 32.9412C12.3134 32.9465 12.3522 32.9291 12.0489 32.9568C9.99176 31.1665 8.82187 28.6166 8.82187 25.8824V16.4706H11.1917C13.2887 16.4706 15.8426 16.1273 17.8194 13.7384C20.4278 16.4524 23.6153 16.4706 26.4767 16.4706H27.7802V25.8824ZM33.7047 24.2186L32.029 25.8824H30.15V16.4706H32.029L33.7047 18.1344V24.2186Z" fill="black"/>
</svg>
